<svg xmlns="http://www.w3.org/2000/svg" width="97" height="64" fill="none" viewBox="0 0 97 64"><path fill="#fff" d="M22.372 18.637C9.162 19.086 5.589 31.224 5.61 37.456-8.722 47.488 7.417 61.882 20.44 56.523c3.739 5.67 37.138 13.522 55.832 0 18.694 5.733 27.48-18.631 11.217-22.12 1.37-14.021-8.226-21.561-19.193-19.63C55.522-12.02 24.18 2.81 22.372 18.638"/><path fill="#f5f7fb" d="M76.272 56.523c18.694 5.733 27.48-18.632 11.216-22.121-11.216 34.142-54.96 28.783-67.048 22.12 3.739 5.671 37.138 13.523 55.832 0"/></svg>